<mxfile host="app.diagrams.net" modified="2024-02-05T16:18:20.975Z" agent="Mozilla/5.0 (Windows NT 10.0; Win64; x64) AppleWebKit/537.36 (KHTML, like Gecko) Chrome/121.0.0.0 Safari/537.36" etag="gUW0LorqQQDTo_8OF9gy" version="23.1.1" type="google">
  <diagram name="PÃ¡gina-1" id="SXlim0X6pfSWSHU0Xcik">
    <mxGraphModel grid="1" page="1" gridSize="10" guides="1" tooltips="1" connect="1" arrows="1" fold="1" pageScale="1" pageWidth="827" pageHeight="1169" math="0" shadow="0">
      <root>
        <mxCell id="0" />
        <mxCell id="1" parent="0" />
        <mxCell id="MciRSQjutUN6cyuomiRv-12" style="edgeStyle=none;shape=connector;rounded=0;orthogonalLoop=1;jettySize=auto;html=1;exitX=0.75;exitY=0;exitDx=0;exitDy=0;labelBackgroundColor=default;strokeColor=default;align=center;verticalAlign=middle;fontFamily=Helvetica;fontSize=11;fontColor=default;endArrow=none;endFill=0;entryX=0;entryY=0.5;entryDx=0;entryDy=0;" edge="1" parent="1" source="MciRSQjutUN6cyuomiRv-6" target="MciRSQjutUN6cyuomiRv-13">
          <mxGeometry relative="1" as="geometry">
            <mxPoint x="260" y="100" as="targetPoint" />
          </mxGeometry>
        </mxCell>
        <mxCell id="MciRSQjutUN6cyuomiRv-18" style="edgeStyle=none;shape=connector;rounded=0;orthogonalLoop=1;jettySize=auto;html=1;exitX=1;exitY=0.25;exitDx=0;exitDy=0;entryX=0;entryY=0.5;entryDx=0;entryDy=0;labelBackgroundColor=default;strokeColor=default;align=center;verticalAlign=middle;fontFamily=Helvetica;fontSize=11;fontColor=default;endArrow=none;endFill=0;" edge="1" parent="1" source="MciRSQjutUN6cyuomiRv-6" target="io4Z00HKoQc3IuGTcMF9-3">
          <mxGeometry relative="1" as="geometry">
            <mxPoint x="300" y="115" as="targetPoint" />
          </mxGeometry>
        </mxCell>
        <mxCell id="MciRSQjutUN6cyuomiRv-90" style="edgeStyle=none;shape=connector;rounded=0;orthogonalLoop=1;jettySize=auto;html=1;exitX=1;exitY=0.5;exitDx=0;exitDy=0;entryX=0;entryY=0.5;entryDx=0;entryDy=0;labelBackgroundColor=default;strokeColor=default;align=center;verticalAlign=middle;fontFamily=Helvetica;fontSize=11;fontColor=default;endArrow=none;endFill=0;" edge="1" parent="1" source="MciRSQjutUN6cyuomiRv-6" target="MciRSQjutUN6cyuomiRv-89">
          <mxGeometry relative="1" as="geometry" />
        </mxCell>
        <mxCell id="MciRSQjutUN6cyuomiRv-92" value="N" style="edgeLabel;html=1;align=center;verticalAlign=middle;resizable=0;points=[];fontSize=11;fontFamily=Helvetica;fontColor=default;" connectable="0" vertex="1" parent="MciRSQjutUN6cyuomiRv-90">
          <mxGeometry x="0.3957" y="3" relative="1" as="geometry">
            <mxPoint as="offset" />
          </mxGeometry>
        </mxCell>
        <mxCell id="MciRSQjutUN6cyuomiRv-6" value="Proveedores" style="whiteSpace=wrap;html=1;align=center;" vertex="1" parent="1">
          <mxGeometry x="120" y="130" width="100" height="40" as="geometry" />
        </mxCell>
        <mxCell id="MciRSQjutUN6cyuomiRv-10" style="rounded=0;orthogonalLoop=1;jettySize=auto;html=1;entryX=0.25;entryY=0;entryDx=0;entryDy=0;endArrow=none;endFill=0;" edge="1" parent="1" source="MciRSQjutUN6cyuomiRv-7" target="MciRSQjutUN6cyuomiRv-6">
          <mxGeometry relative="1" as="geometry" />
        </mxCell>
        <mxCell id="MciRSQjutUN6cyuomiRv-7" value="codigo" style="ellipse;whiteSpace=wrap;html=1;align=center;fontStyle=4;" vertex="1" parent="1">
          <mxGeometry x="70" y="80" width="60" height="30" as="geometry" />
        </mxCell>
        <mxCell id="MciRSQjutUN6cyuomiRv-11" style="edgeStyle=none;shape=connector;rounded=0;orthogonalLoop=1;jettySize=auto;html=1;entryX=0.5;entryY=0;entryDx=0;entryDy=0;labelBackgroundColor=default;strokeColor=default;align=center;verticalAlign=middle;fontFamily=Helvetica;fontSize=11;fontColor=default;endArrow=none;endFill=0;" edge="1" parent="1" source="MciRSQjutUN6cyuomiRv-9" target="MciRSQjutUN6cyuomiRv-6">
          <mxGeometry relative="1" as="geometry" />
        </mxCell>
        <mxCell id="MciRSQjutUN6cyuomiRv-9" value="nombre" style="ellipse;whiteSpace=wrap;html=1;align=center;" vertex="1" parent="1">
          <mxGeometry x="160" y="70" width="60" height="30" as="geometry" />
        </mxCell>
        <mxCell id="MciRSQjutUN6cyuomiRv-27" style="edgeStyle=none;shape=connector;rounded=0;orthogonalLoop=1;jettySize=auto;html=1;exitX=1;exitY=0;exitDx=0;exitDy=0;entryX=0;entryY=1;entryDx=0;entryDy=0;labelBackgroundColor=default;strokeColor=default;align=center;verticalAlign=middle;fontFamily=Helvetica;fontSize=11;fontColor=default;endArrow=none;endFill=0;" edge="1" parent="1" source="MciRSQjutUN6cyuomiRv-13" target="MciRSQjutUN6cyuomiRv-21">
          <mxGeometry relative="1" as="geometry" />
        </mxCell>
        <mxCell id="MciRSQjutUN6cyuomiRv-28" style="edgeStyle=none;shape=connector;rounded=0;orthogonalLoop=1;jettySize=auto;html=1;exitX=1;exitY=0.5;exitDx=0;exitDy=0;entryX=0.5;entryY=1;entryDx=0;entryDy=0;labelBackgroundColor=default;strokeColor=default;align=center;verticalAlign=middle;fontFamily=Helvetica;fontSize=11;fontColor=default;endArrow=none;endFill=0;" edge="1" parent="1" source="MciRSQjutUN6cyuomiRv-13" target="MciRSQjutUN6cyuomiRv-22">
          <mxGeometry relative="1" as="geometry" />
        </mxCell>
        <mxCell id="MciRSQjutUN6cyuomiRv-13" value="direccion" style="ellipse;whiteSpace=wrap;html=1;align=center;" vertex="1" parent="1">
          <mxGeometry x="280" y="50" width="60" height="30" as="geometry" />
        </mxCell>
        <mxCell id="MciRSQjutUN6cyuomiRv-25" style="edgeStyle=none;shape=connector;rounded=0;orthogonalLoop=1;jettySize=auto;html=1;exitX=1;exitY=1;exitDx=0;exitDy=0;entryX=0;entryY=0;entryDx=0;entryDy=0;labelBackgroundColor=default;strokeColor=default;align=center;verticalAlign=middle;fontFamily=Helvetica;fontSize=11;fontColor=default;endArrow=none;endFill=0;" edge="1" parent="1" source="MciRSQjutUN6cyuomiRv-19" target="MciRSQjutUN6cyuomiRv-13">
          <mxGeometry relative="1" as="geometry" />
        </mxCell>
        <mxCell id="MciRSQjutUN6cyuomiRv-19" value="calle" style="ellipse;whiteSpace=wrap;html=1;align=center;" vertex="1" parent="1">
          <mxGeometry x="210" y="10" width="60" height="30" as="geometry" />
        </mxCell>
        <mxCell id="MciRSQjutUN6cyuomiRv-26" style="edgeStyle=none;shape=connector;rounded=0;orthogonalLoop=1;jettySize=auto;html=1;exitX=0.5;exitY=1;exitDx=0;exitDy=0;entryX=0.5;entryY=0;entryDx=0;entryDy=0;labelBackgroundColor=default;strokeColor=default;align=center;verticalAlign=middle;fontFamily=Helvetica;fontSize=11;fontColor=default;endArrow=none;endFill=0;" edge="1" parent="1" source="MciRSQjutUN6cyuomiRv-20" target="MciRSQjutUN6cyuomiRv-13">
          <mxGeometry relative="1" as="geometry" />
        </mxCell>
        <mxCell id="MciRSQjutUN6cyuomiRv-20" value="numero" style="ellipse;whiteSpace=wrap;html=1;align=center;" vertex="1" parent="1">
          <mxGeometry x="270" width="60" height="30" as="geometry" />
        </mxCell>
        <mxCell id="MciRSQjutUN6cyuomiRv-21" value="cp" style="ellipse;whiteSpace=wrap;html=1;align=center;" vertex="1" parent="1">
          <mxGeometry x="340" width="60" height="30" as="geometry" />
        </mxCell>
        <mxCell id="MciRSQjutUN6cyuomiRv-22" value="ciudad" style="ellipse;whiteSpace=wrap;html=1;align=center;" vertex="1" parent="1">
          <mxGeometry x="414" y="10" width="60" height="30" as="geometry" />
        </mxCell>
        <mxCell id="MciRSQjutUN6cyuomiRv-76" style="edgeStyle=none;shape=connector;rounded=0;orthogonalLoop=1;jettySize=auto;html=1;exitX=0.25;exitY=0;exitDx=0;exitDy=0;entryX=0.5;entryY=1;entryDx=0;entryDy=0;labelBackgroundColor=default;strokeColor=default;align=center;verticalAlign=middle;fontFamily=Helvetica;fontSize=11;fontColor=default;endArrow=none;endFill=0;" edge="1" parent="1" source="MciRSQjutUN6cyuomiRv-29" target="MciRSQjutUN6cyuomiRv-30">
          <mxGeometry relative="1" as="geometry" />
        </mxCell>
        <mxCell id="MciRSQjutUN6cyuomiRv-77" style="edgeStyle=none;shape=connector;rounded=0;orthogonalLoop=1;jettySize=auto;html=1;exitX=0.5;exitY=0;exitDx=0;exitDy=0;entryX=0.5;entryY=1;entryDx=0;entryDy=0;labelBackgroundColor=default;strokeColor=default;align=center;verticalAlign=middle;fontFamily=Helvetica;fontSize=11;fontColor=default;endArrow=none;endFill=0;" edge="1" parent="1" source="MciRSQjutUN6cyuomiRv-29" target="MciRSQjutUN6cyuomiRv-31">
          <mxGeometry relative="1" as="geometry" />
        </mxCell>
        <mxCell id="MciRSQjutUN6cyuomiRv-78" style="edgeStyle=none;shape=connector;rounded=0;orthogonalLoop=1;jettySize=auto;html=1;exitX=0.75;exitY=0;exitDx=0;exitDy=0;entryX=0.5;entryY=1;entryDx=0;entryDy=0;labelBackgroundColor=default;strokeColor=default;align=center;verticalAlign=middle;fontFamily=Helvetica;fontSize=11;fontColor=default;endArrow=none;endFill=0;" edge="1" parent="1" source="MciRSQjutUN6cyuomiRv-29" target="MciRSQjutUN6cyuomiRv-32">
          <mxGeometry relative="1" as="geometry" />
        </mxCell>
        <mxCell id="MciRSQjutUN6cyuomiRv-79" style="edgeStyle=none;shape=connector;rounded=0;orthogonalLoop=1;jettySize=auto;html=1;exitX=1;exitY=0.5;exitDx=0;exitDy=0;entryX=0.5;entryY=1;entryDx=0;entryDy=0;labelBackgroundColor=default;strokeColor=default;align=center;verticalAlign=middle;fontFamily=Helvetica;fontSize=11;fontColor=default;endArrow=none;endFill=0;" edge="1" parent="1" source="MciRSQjutUN6cyuomiRv-29" target="MciRSQjutUN6cyuomiRv-33">
          <mxGeometry relative="1" as="geometry" />
        </mxCell>
        <mxCell id="MciRSQjutUN6cyuomiRv-29" value="Producto" style="whiteSpace=wrap;html=1;align=center;" vertex="1" parent="1">
          <mxGeometry x="806" y="150" width="100" height="40" as="geometry" />
        </mxCell>
        <mxCell id="MciRSQjutUN6cyuomiRv-30" value="id" style="ellipse;whiteSpace=wrap;html=1;align=center;fontStyle=4;" vertex="1" parent="1">
          <mxGeometry x="700" y="90" width="60" height="30" as="geometry" />
        </mxCell>
        <mxCell id="MciRSQjutUN6cyuomiRv-31" value="nombre" style="ellipse;whiteSpace=wrap;html=1;align=center;" vertex="1" parent="1">
          <mxGeometry x="786" y="90" width="60" height="30" as="geometry" />
        </mxCell>
        <mxCell id="MciRSQjutUN6cyuomiRv-32" value="precio_actual" style="ellipse;whiteSpace=wrap;html=1;align=center;" vertex="1" parent="1">
          <mxGeometry x="856" y="90" width="90" height="30" as="geometry" />
        </mxCell>
        <mxCell id="MciRSQjutUN6cyuomiRv-33" value="stock" style="ellipse;whiteSpace=wrap;html=1;align=center;" vertex="1" parent="1">
          <mxGeometry x="963" y="90" width="90" height="30" as="geometry" />
        </mxCell>
        <mxCell id="MciRSQjutUN6cyuomiRv-35" value="CategorÃ­as" style="whiteSpace=wrap;html=1;align=center;" vertex="1" parent="1">
          <mxGeometry x="816" y="325" width="100" height="40" as="geometry" />
        </mxCell>
        <mxCell id="MciRSQjutUN6cyuomiRv-44" style="edgeStyle=none;shape=connector;rounded=0;orthogonalLoop=1;jettySize=auto;html=1;exitX=0.5;exitY=0;exitDx=0;exitDy=0;entryX=0.25;entryY=1;entryDx=0;entryDy=0;labelBackgroundColor=default;strokeColor=default;align=center;verticalAlign=middle;fontFamily=Helvetica;fontSize=11;fontColor=default;endArrow=none;endFill=0;" edge="1" parent="1" source="MciRSQjutUN6cyuomiRv-36" target="MciRSQjutUN6cyuomiRv-35">
          <mxGeometry relative="1" as="geometry" />
        </mxCell>
        <mxCell id="MciRSQjutUN6cyuomiRv-36" value="id" style="ellipse;whiteSpace=wrap;html=1;align=center;fontStyle=4;" vertex="1" parent="1">
          <mxGeometry x="786" y="390" width="60" height="30" as="geometry" />
        </mxCell>
        <mxCell id="MciRSQjutUN6cyuomiRv-39" style="edgeStyle=none;shape=connector;rounded=0;orthogonalLoop=1;jettySize=auto;html=1;exitX=0.5;exitY=0;exitDx=0;exitDy=0;entryX=0.5;entryY=1;entryDx=0;entryDy=0;labelBackgroundColor=default;strokeColor=default;align=center;verticalAlign=middle;fontFamily=Helvetica;fontSize=11;fontColor=default;endArrow=none;endFill=0;" edge="1" parent="1" source="MciRSQjutUN6cyuomiRv-38" target="MciRSQjutUN6cyuomiRv-29">
          <mxGeometry relative="1" as="geometry" />
        </mxCell>
        <mxCell id="MciRSQjutUN6cyuomiRv-41" value="N" style="edgeLabel;html=1;align=center;verticalAlign=middle;resizable=0;points=[];fontSize=11;fontFamily=Helvetica;fontColor=default;" connectable="0" vertex="1" parent="MciRSQjutUN6cyuomiRv-39">
          <mxGeometry x="0.0333" y="-3" relative="1" as="geometry">
            <mxPoint as="offset" />
          </mxGeometry>
        </mxCell>
        <mxCell id="MciRSQjutUN6cyuomiRv-40" value="1" style="edgeStyle=none;shape=connector;rounded=0;orthogonalLoop=1;jettySize=auto;html=1;exitX=0.5;exitY=1;exitDx=0;exitDy=0;labelBackgroundColor=default;strokeColor=default;align=center;verticalAlign=middle;fontFamily=Helvetica;fontSize=11;fontColor=default;endArrow=none;endFill=0;" edge="1" parent="1" source="MciRSQjutUN6cyuomiRv-38" target="MciRSQjutUN6cyuomiRv-35">
          <mxGeometry x="-0.0382" y="11" relative="1" as="geometry">
            <mxPoint as="offset" />
          </mxGeometry>
        </mxCell>
        <mxCell id="MciRSQjutUN6cyuomiRv-38" value="organiza" style="shape=rhombus;perimeter=rhombusPerimeter;whiteSpace=wrap;html=1;align=center;fontFamily=Helvetica;fontSize=11;fontColor=default;" vertex="1" parent="1">
          <mxGeometry x="816" y="250" width="80" height="30" as="geometry" />
        </mxCell>
        <mxCell id="MciRSQjutUN6cyuomiRv-43" value="nombre" style="ellipse;whiteSpace=wrap;html=1;align=center;" vertex="1" parent="1">
          <mxGeometry x="876" y="390" width="60" height="30" as="geometry" />
        </mxCell>
        <mxCell id="MciRSQjutUN6cyuomiRv-45" style="edgeStyle=none;shape=connector;rounded=0;orthogonalLoop=1;jettySize=auto;html=1;exitX=0.5;exitY=0;exitDx=0;exitDy=0;entryX=0.69;entryY=1.05;entryDx=0;entryDy=0;entryPerimeter=0;labelBackgroundColor=default;strokeColor=default;align=center;verticalAlign=middle;fontFamily=Helvetica;fontSize=11;fontColor=default;endArrow=none;endFill=0;" edge="1" parent="1" source="MciRSQjutUN6cyuomiRv-43" target="MciRSQjutUN6cyuomiRv-35">
          <mxGeometry relative="1" as="geometry" />
        </mxCell>
        <mxCell id="MciRSQjutUN6cyuomiRv-47" style="edgeStyle=none;shape=connector;rounded=0;orthogonalLoop=1;jettySize=auto;html=1;exitX=0;exitY=0.5;exitDx=0;exitDy=0;entryX=1;entryY=0.5;entryDx=0;entryDy=0;labelBackgroundColor=default;strokeColor=default;align=center;verticalAlign=middle;fontFamily=Helvetica;fontSize=11;fontColor=default;endArrow=none;endFill=0;" edge="1" parent="1" source="MciRSQjutUN6cyuomiRv-46" target="MciRSQjutUN6cyuomiRv-35">
          <mxGeometry relative="1" as="geometry" />
        </mxCell>
        <mxCell id="MciRSQjutUN6cyuomiRv-46" value="descripcion" style="ellipse;whiteSpace=wrap;html=1;align=center;" vertex="1" parent="1">
          <mxGeometry x="956" y="340" width="60" height="30" as="geometry" />
        </mxCell>
        <mxCell id="MciRSQjutUN6cyuomiRv-50" style="edgeStyle=none;shape=connector;rounded=0;orthogonalLoop=1;jettySize=auto;html=1;exitX=0.75;exitY=0;exitDx=0;exitDy=0;labelBackgroundColor=default;strokeColor=default;align=center;verticalAlign=middle;fontFamily=Helvetica;fontSize=11;fontColor=default;endArrow=none;endFill=0;entryX=0;entryY=0.5;entryDx=0;entryDy=0;" edge="1" parent="1" source="MciRSQjutUN6cyuomiRv-51" target="MciRSQjutUN6cyuomiRv-56">
          <mxGeometry relative="1" as="geometry">
            <mxPoint x="270" y="330" as="targetPoint" />
          </mxGeometry>
        </mxCell>
        <mxCell id="MciRSQjutUN6cyuomiRv-66" style="edgeStyle=none;shape=connector;rounded=0;orthogonalLoop=1;jettySize=auto;html=1;exitX=1;exitY=0.5;exitDx=0;exitDy=0;labelBackgroundColor=default;strokeColor=default;align=center;verticalAlign=middle;fontFamily=Helvetica;fontSize=11;fontColor=default;endArrow=none;endFill=0;" edge="1" parent="1" source="MciRSQjutUN6cyuomiRv-51">
          <mxGeometry relative="1" as="geometry">
            <mxPoint x="320" y="340" as="targetPoint" />
          </mxGeometry>
        </mxCell>
        <mxCell id="io4Z00HKoQc3IuGTcMF9-2" style="edgeStyle=orthogonalEdgeStyle;rounded=0;orthogonalLoop=1;jettySize=auto;html=1;exitX=0;exitY=0.5;exitDx=0;exitDy=0;entryX=1;entryY=0.5;entryDx=0;entryDy=0;endArrow=none;endFill=0;" edge="1" parent="1" source="MciRSQjutUN6cyuomiRv-51" target="io4Z00HKoQc3IuGTcMF9-1">
          <mxGeometry relative="1" as="geometry" />
        </mxCell>
        <mxCell id="MciRSQjutUN6cyuomiRv-51" value="Cliente" style="whiteSpace=wrap;html=1;align=center;" vertex="1" parent="1">
          <mxGeometry x="130" y="360" width="100" height="40" as="geometry" />
        </mxCell>
        <mxCell id="MciRSQjutUN6cyuomiRv-52" style="rounded=0;orthogonalLoop=1;jettySize=auto;html=1;entryX=0.25;entryY=0;entryDx=0;entryDy=0;endArrow=none;endFill=0;" edge="1" parent="1" source="MciRSQjutUN6cyuomiRv-53" target="MciRSQjutUN6cyuomiRv-51">
          <mxGeometry relative="1" as="geometry" />
        </mxCell>
        <mxCell id="MciRSQjutUN6cyuomiRv-53" value="codigo" style="ellipse;whiteSpace=wrap;html=1;align=center;fontStyle=4;" vertex="1" parent="1">
          <mxGeometry x="80" y="310" width="60" height="30" as="geometry" />
        </mxCell>
        <mxCell id="MciRSQjutUN6cyuomiRv-54" style="edgeStyle=none;shape=connector;rounded=0;orthogonalLoop=1;jettySize=auto;html=1;entryX=0.5;entryY=0;entryDx=0;entryDy=0;labelBackgroundColor=default;strokeColor=default;align=center;verticalAlign=middle;fontFamily=Helvetica;fontSize=11;fontColor=default;endArrow=none;endFill=0;" edge="1" parent="1" source="MciRSQjutUN6cyuomiRv-55" target="MciRSQjutUN6cyuomiRv-51">
          <mxGeometry relative="1" as="geometry" />
        </mxCell>
        <mxCell id="MciRSQjutUN6cyuomiRv-55" value="nombre" style="ellipse;whiteSpace=wrap;html=1;align=center;" vertex="1" parent="1">
          <mxGeometry x="170" y="300" width="60" height="30" as="geometry" />
        </mxCell>
        <mxCell id="MciRSQjutUN6cyuomiRv-61" style="edgeStyle=none;shape=connector;rounded=0;orthogonalLoop=1;jettySize=auto;html=1;exitX=0;exitY=0;exitDx=0;exitDy=0;entryX=0.5;entryY=1;entryDx=0;entryDy=0;labelBackgroundColor=default;strokeColor=default;align=center;verticalAlign=middle;fontFamily=Helvetica;fontSize=11;fontColor=default;endArrow=none;endFill=0;" edge="1" parent="1" source="MciRSQjutUN6cyuomiRv-56" target="MciRSQjutUN6cyuomiRv-57">
          <mxGeometry relative="1" as="geometry" />
        </mxCell>
        <mxCell id="MciRSQjutUN6cyuomiRv-62" style="edgeStyle=none;shape=connector;rounded=0;orthogonalLoop=1;jettySize=auto;html=1;exitX=0.5;exitY=0;exitDx=0;exitDy=0;entryX=0.5;entryY=1;entryDx=0;entryDy=0;labelBackgroundColor=default;strokeColor=default;align=center;verticalAlign=middle;fontFamily=Helvetica;fontSize=11;fontColor=default;endArrow=none;endFill=0;" edge="1" parent="1" source="MciRSQjutUN6cyuomiRv-56" target="MciRSQjutUN6cyuomiRv-58">
          <mxGeometry relative="1" as="geometry" />
        </mxCell>
        <mxCell id="MciRSQjutUN6cyuomiRv-63" style="edgeStyle=none;shape=connector;rounded=0;orthogonalLoop=1;jettySize=auto;html=1;exitX=1;exitY=0;exitDx=0;exitDy=0;entryX=0.5;entryY=1;entryDx=0;entryDy=0;labelBackgroundColor=default;strokeColor=default;align=center;verticalAlign=middle;fontFamily=Helvetica;fontSize=11;fontColor=default;endArrow=none;endFill=0;" edge="1" parent="1" source="MciRSQjutUN6cyuomiRv-56" target="MciRSQjutUN6cyuomiRv-59">
          <mxGeometry relative="1" as="geometry" />
        </mxCell>
        <mxCell id="MciRSQjutUN6cyuomiRv-56" value="direccion" style="ellipse;whiteSpace=wrap;html=1;align=center;" vertex="1" parent="1">
          <mxGeometry x="260" y="280" width="60" height="30" as="geometry" />
        </mxCell>
        <mxCell id="MciRSQjutUN6cyuomiRv-57" value="calle" style="ellipse;whiteSpace=wrap;html=1;align=center;" vertex="1" parent="1">
          <mxGeometry x="180" y="220" width="60" height="30" as="geometry" />
        </mxCell>
        <mxCell id="MciRSQjutUN6cyuomiRv-58" value="numero" style="ellipse;whiteSpace=wrap;html=1;align=center;" vertex="1" parent="1">
          <mxGeometry x="250" y="220" width="60" height="30" as="geometry" />
        </mxCell>
        <mxCell id="MciRSQjutUN6cyuomiRv-59" value="cp" style="ellipse;whiteSpace=wrap;html=1;align=center;" vertex="1" parent="1">
          <mxGeometry x="320" y="210" width="60" height="30" as="geometry" />
        </mxCell>
        <mxCell id="MciRSQjutUN6cyuomiRv-60" value="ciudad" style="ellipse;whiteSpace=wrap;html=1;align=center;" vertex="1" parent="1">
          <mxGeometry x="390" y="220" width="60" height="30" as="geometry" />
        </mxCell>
        <mxCell id="MciRSQjutUN6cyuomiRv-64" style="edgeStyle=none;shape=connector;rounded=0;orthogonalLoop=1;jettySize=auto;html=1;exitX=1;exitY=0.5;exitDx=0;exitDy=0;entryX=0.383;entryY=1.067;entryDx=0;entryDy=0;entryPerimeter=0;labelBackgroundColor=default;strokeColor=default;align=center;verticalAlign=middle;fontFamily=Helvetica;fontSize=11;fontColor=default;endArrow=none;endFill=0;" edge="1" parent="1" source="MciRSQjutUN6cyuomiRv-56" target="MciRSQjutUN6cyuomiRv-60">
          <mxGeometry relative="1" as="geometry" />
        </mxCell>
        <mxCell id="MciRSQjutUN6cyuomiRv-71" style="edgeStyle=none;shape=connector;rounded=0;orthogonalLoop=1;jettySize=auto;html=1;exitX=1;exitY=0.5;exitDx=0;exitDy=0;labelBackgroundColor=default;strokeColor=default;align=center;verticalAlign=middle;fontFamily=Helvetica;fontSize=11;fontColor=default;endArrow=none;endFill=0;entryX=0;entryY=0.5;entryDx=0;entryDy=0;" edge="1" parent="1" source="MciRSQjutUN6cyuomiRv-65" target="MciRSQjutUN6cyuomiRv-72">
          <mxGeometry relative="1" as="geometry">
            <mxPoint x="570" y="250" as="targetPoint" />
          </mxGeometry>
        </mxCell>
        <mxCell id="MciRSQjutUN6cyuomiRv-65" value="Venta" style="whiteSpace=wrap;html=1;align=center;" vertex="1" parent="1">
          <mxGeometry x="440" y="275" width="100" height="40" as="geometry" />
        </mxCell>
        <mxCell id="MciRSQjutUN6cyuomiRv-68" style="edgeStyle=none;shape=connector;rounded=0;orthogonalLoop=1;jettySize=auto;html=1;exitX=1;exitY=0.5;exitDx=0;exitDy=0;entryX=0;entryY=0.5;entryDx=0;entryDy=0;labelBackgroundColor=default;strokeColor=default;align=center;verticalAlign=middle;fontFamily=Helvetica;fontSize=11;fontColor=default;endArrow=none;endFill=0;" edge="1" parent="1" source="MciRSQjutUN6cyuomiRv-67" target="MciRSQjutUN6cyuomiRv-65">
          <mxGeometry relative="1" as="geometry" />
        </mxCell>
        <mxCell id="MciRSQjutUN6cyuomiRv-67" value="realiza" style="shape=rhombus;perimeter=rhombusPerimeter;whiteSpace=wrap;html=1;align=center;fontFamily=Helvetica;fontSize=11;fontColor=default;" vertex="1" parent="1">
          <mxGeometry x="320" y="325" width="80" height="30" as="geometry" />
        </mxCell>
        <mxCell id="MciRSQjutUN6cyuomiRv-69" value="1" style="text;html=1;align=center;verticalAlign=middle;resizable=0;points=[];autosize=1;strokeColor=none;fillColor=none;fontSize=11;fontFamily=Helvetica;fontColor=default;" vertex="1" parent="1">
          <mxGeometry x="275" y="330" width="30" height="30" as="geometry" />
        </mxCell>
        <mxCell id="MciRSQjutUN6cyuomiRv-70" value="N" style="text;html=1;align=center;verticalAlign=middle;resizable=0;points=[];autosize=1;strokeColor=none;fillColor=none;fontSize=11;fontFamily=Helvetica;fontColor=default;" vertex="1" parent="1">
          <mxGeometry x="395" y="298" width="30" height="30" as="geometry" />
        </mxCell>
        <mxCell id="MciRSQjutUN6cyuomiRv-73" style="edgeStyle=none;shape=connector;rounded=0;orthogonalLoop=1;jettySize=auto;html=1;exitX=1;exitY=0.5;exitDx=0;exitDy=0;entryX=0;entryY=1;entryDx=0;entryDy=0;labelBackgroundColor=default;strokeColor=default;align=center;verticalAlign=middle;fontFamily=Helvetica;fontSize=11;fontColor=default;endArrow=none;endFill=0;" edge="1" parent="1" source="MciRSQjutUN6cyuomiRv-72" target="MciRSQjutUN6cyuomiRv-29">
          <mxGeometry relative="1" as="geometry">
            <mxPoint x="786" y="255" as="sourcePoint" />
          </mxGeometry>
        </mxCell>
        <mxCell id="MciRSQjutUN6cyuomiRv-82" style="edgeStyle=none;shape=connector;rounded=0;orthogonalLoop=1;jettySize=auto;html=1;exitX=0.5;exitY=1;exitDx=0;exitDy=0;entryX=0.5;entryY=0;entryDx=0;entryDy=0;labelBackgroundColor=default;strokeColor=default;align=center;verticalAlign=middle;fontFamily=Helvetica;fontSize=11;fontColor=default;endArrow=none;endFill=0;" edge="1" parent="1" source="MciRSQjutUN6cyuomiRv-72" target="MciRSQjutUN6cyuomiRv-80">
          <mxGeometry relative="1" as="geometry" />
        </mxCell>
        <mxCell id="MciRSQjutUN6cyuomiRv-83" style="edgeStyle=none;shape=connector;rounded=0;orthogonalLoop=1;jettySize=auto;html=1;exitX=0.5;exitY=0;exitDx=0;exitDy=0;entryX=0.5;entryY=1;entryDx=0;entryDy=0;labelBackgroundColor=default;strokeColor=default;align=center;verticalAlign=middle;fontFamily=Helvetica;fontSize=11;fontColor=default;endArrow=none;endFill=0;" edge="1" parent="1" source="MciRSQjutUN6cyuomiRv-72" target="MciRSQjutUN6cyuomiRv-81">
          <mxGeometry relative="1" as="geometry" />
        </mxCell>
        <mxCell id="MciRSQjutUN6cyuomiRv-72" value="existen" style="shape=rhombus;perimeter=rhombusPerimeter;whiteSpace=wrap;html=1;align=center;fontFamily=Helvetica;fontSize=11;fontColor=default;" vertex="1" parent="1">
          <mxGeometry x="600" y="230" width="80" height="30" as="geometry" />
        </mxCell>
        <mxCell id="MciRSQjutUN6cyuomiRv-74" value="N" style="text;html=1;align=center;verticalAlign=middle;resizable=0;points=[];autosize=1;strokeColor=none;fillColor=none;fontSize=11;fontFamily=Helvetica;fontColor=default;" vertex="1" parent="1">
          <mxGeometry x="550" y="245" width="30" height="30" as="geometry" />
        </mxCell>
        <mxCell id="MciRSQjutUN6cyuomiRv-75" value="M" style="text;html=1;align=center;verticalAlign=middle;resizable=0;points=[];autosize=1;strokeColor=none;fillColor=none;fontSize=11;fontFamily=Helvetica;fontColor=default;" vertex="1" parent="1">
          <mxGeometry x="690" y="200" width="30" height="30" as="geometry" />
        </mxCell>
        <mxCell id="MciRSQjutUN6cyuomiRv-80" value="num_unidades" style="ellipse;whiteSpace=wrap;html=1;align=center;" vertex="1" parent="1">
          <mxGeometry x="590" y="285" width="100" height="30" as="geometry" />
        </mxCell>
        <mxCell id="MciRSQjutUN6cyuomiRv-81" value="precio unidad" style="ellipse;whiteSpace=wrap;html=1;align=center;" vertex="1" parent="1">
          <mxGeometry x="580" y="170" width="100" height="30" as="geometry" />
        </mxCell>
        <mxCell id="MciRSQjutUN6cyuomiRv-88" style="edgeStyle=none;shape=connector;rounded=0;orthogonalLoop=1;jettySize=auto;html=1;exitX=0.5;exitY=0;exitDx=0;exitDy=0;entryX=0.25;entryY=1;entryDx=0;entryDy=0;labelBackgroundColor=default;strokeColor=default;align=center;verticalAlign=middle;fontFamily=Helvetica;fontSize=11;fontColor=default;endArrow=none;endFill=0;" edge="1" parent="1" source="MciRSQjutUN6cyuomiRv-84" target="MciRSQjutUN6cyuomiRv-65">
          <mxGeometry relative="1" as="geometry" />
        </mxCell>
        <mxCell id="MciRSQjutUN6cyuomiRv-84" value="id" style="ellipse;whiteSpace=wrap;html=1;align=center;fontStyle=4;" vertex="1" parent="1">
          <mxGeometry x="425" y="340" width="60" height="30" as="geometry" />
        </mxCell>
        <mxCell id="MciRSQjutUN6cyuomiRv-87" style="edgeStyle=none;shape=connector;rounded=0;orthogonalLoop=1;jettySize=auto;html=1;exitX=0.5;exitY=0;exitDx=0;exitDy=0;entryX=0.75;entryY=1;entryDx=0;entryDy=0;labelBackgroundColor=default;strokeColor=default;align=center;verticalAlign=middle;fontFamily=Helvetica;fontSize=11;fontColor=default;endArrow=none;endFill=0;" edge="1" parent="1" source="MciRSQjutUN6cyuomiRv-86" target="MciRSQjutUN6cyuomiRv-65">
          <mxGeometry relative="1" as="geometry" />
        </mxCell>
        <mxCell id="MciRSQjutUN6cyuomiRv-86" value="total_gastado" style="ellipse;whiteSpace=wrap;html=1;align=center;" vertex="1" parent="1">
          <mxGeometry x="505" y="340" width="85" height="30" as="geometry" />
        </mxCell>
        <mxCell id="MciRSQjutUN6cyuomiRv-91" style="edgeStyle=none;shape=connector;rounded=0;orthogonalLoop=1;jettySize=auto;html=1;exitX=1;exitY=0.5;exitDx=0;exitDy=0;entryX=0;entryY=0.5;entryDx=0;entryDy=0;labelBackgroundColor=default;strokeColor=default;align=center;verticalAlign=middle;fontFamily=Helvetica;fontSize=11;fontColor=default;endArrow=none;endFill=0;" edge="1" parent="1" source="MciRSQjutUN6cyuomiRv-89" target="MciRSQjutUN6cyuomiRv-29">
          <mxGeometry relative="1" as="geometry" />
        </mxCell>
        <mxCell id="MciRSQjutUN6cyuomiRv-93" value="M" style="edgeLabel;html=1;align=center;verticalAlign=middle;resizable=0;points=[];fontSize=11;fontFamily=Helvetica;fontColor=default;" connectable="0" vertex="1" parent="MciRSQjutUN6cyuomiRv-91">
          <mxGeometry x="0.0581" y="4" relative="1" as="geometry">
            <mxPoint as="offset" />
          </mxGeometry>
        </mxCell>
        <mxCell id="MciRSQjutUN6cyuomiRv-89" value="obtener" style="shape=rhombus;perimeter=rhombusPerimeter;whiteSpace=wrap;html=1;align=center;fontFamily=Helvetica;fontSize=11;fontColor=default;" vertex="1" parent="1">
          <mxGeometry x="474" y="110" width="80" height="30" as="geometry" />
        </mxCell>
        <mxCell id="MciRSQjutUN6cyuomiRv-94" value="Ejercicio37. Venta mÃ³viles" style="text;html=1;align=center;verticalAlign=middle;resizable=0;points=[];autosize=1;strokeColor=none;fillColor=none;fontSize=11;fontFamily=Helvetica;fontColor=default;" vertex="1" parent="1">
          <mxGeometry x="10" y="20" width="150" height="30" as="geometry" />
        </mxCell>
        <mxCell id="io4Z00HKoQc3IuGTcMF9-1" value="telefonos" style="ellipse;shape=doubleEllipse;margin=3;whiteSpace=wrap;html=1;align=center;fontFamily=Helvetica;fontSize=11;fontColor=default;" vertex="1" parent="1">
          <mxGeometry x="30" y="365" width="70" height="30" as="geometry" />
        </mxCell>
        <mxCell id="io4Z00HKoQc3IuGTcMF9-3" value="telefono" style="ellipse;whiteSpace=wrap;html=1;align=center;" vertex="1" parent="1">
          <mxGeometry x="305" y="90" width="100" height="30" as="geometry" />
        </mxCell>
        <mxCell id="io4Z00HKoQc3IuGTcMF9-5" style="edgeStyle=none;shape=connector;rounded=0;orthogonalLoop=1;jettySize=auto;html=1;entryX=0;entryY=0.5;entryDx=0;entryDy=0;labelBackgroundColor=default;strokeColor=default;align=center;verticalAlign=middle;fontFamily=Helvetica;fontSize=11;fontColor=default;endArrow=none;endFill=0;" edge="1" parent="1" source="io4Z00HKoQc3IuGTcMF9-4" target="MciRSQjutUN6cyuomiRv-6">
          <mxGeometry relative="1" as="geometry" />
        </mxCell>
        <mxCell id="io4Z00HKoQc3IuGTcMF9-4" value="web" style="ellipse;whiteSpace=wrap;html=1;align=center;" vertex="1" parent="1">
          <mxGeometry x="30" y="135" width="60" height="30" as="geometry" />
        </mxCell>
      </root>
    </mxGraphModel>
  </diagram>
</mxfile>
